HIERARCHY
ROOT Hips
{
	OFFSET -14.64140 90.27770 -84.91600
	CHANNELS 6 Xposition Yposition Zposition Zrotation Xrotation Yrotation
	JOINT Spine
	{
		OFFSET 0.00000 13.20850 -1.60436
		CHANNELS 3 Zrotation Xrotation Yrotation
		JOINT Spine1
		{
			OFFSET 0.00000 8.61716 0.00000
			CHANNELS 3 Zrotation Xrotation Yrotation
			JOINT Spine2
			{
				OFFSET 0.00000 8.61717 0.00000
				CHANNELS 3 Zrotation Xrotation Yrotation
				JOINT Spine3
				{
					OFFSET 0.00000 8.61717 0.00000
					CHANNELS 3 Zrotation Xrotation Yrotation
					JOINT Neck
					{
						OFFSET 0.00000 11.07920 1.10792
						CHANNELS 3 Zrotation Xrotation Yrotation
						JOINT Neck1
						{
							OFFSET 0.00000 7.08032 0.00000
							CHANNELS 3 Zrotation Xrotation Yrotation
							JOINT Head
							{
								OFFSET 0.00000 7.08031 0.00000
								CHANNELS 3 Zrotation Xrotation Yrotation
								End site
								{
									OFFSET 0.00000 0.00000 0.00000
								}
							}
						}
					}
					JOINT RightShoulder
					{
						OFFSET -0.01000 7.91373 5.19711
						CHANNELS 3 Zrotation Xrotation Yrotation
						JOINT RightArm
						{
							OFFSET -18.41580 0.00000 0.00000
							CHANNELS 3 Zrotation Xrotation Yrotation
							JOINT RightForeArm
							{
								OFFSET -29.11090 0.00000 0.00000
								CHANNELS 3 Zrotation Xrotation Yrotation
								JOINT RightHand
								{
									OFFSET -24.65040 0.00000 0.00000
									CHANNELS 3 Zrotation Xrotation Yrotation
									JOINT RightHandThumb1
									{
										OFFSET -5.35114 -0.85590 3.97906
										CHANNELS 3 Zrotation Xrotation Yrotation
										JOINT RightHandThumb2
										{
											OFFSET -4.52789 0.00000 0.00000
											CHANNELS 3 Zrotation Xrotation Yrotation
											JOINT RightHandThumb3
											{
												OFFSET -2.46976 0.00000 0.00000
												CHANNELS 3 Zrotation Xrotation Yrotation
												End site
												{
													OFFSET 0.00000 0.00000 0.00000
												}
											}
										}
									}
									JOINT RightHandIndex1
									{
										OFFSET -14.26970 0.00000 2.88139
										CHANNELS 3 Zrotation Xrotation Yrotation
										JOINT RightHandIndex2
										{
											OFFSET -5.48836 0.00000 0.00000
											CHANNELS 3 Zrotation Xrotation Yrotation
											JOINT RightHandIndex3
											{
												OFFSET -3.01859 0.00000 0.00000
												CHANNELS 3 Zrotation Xrotation Yrotation
												End site
												{
													OFFSET 0.00000 0.00000 0.00000
												}
											}
										}
									}
									JOINT RightHandMiddle1
									{
										OFFSET -14.26970 0.00000 -0.09147
										CHANNELS 3 Zrotation Xrotation Yrotation
										JOINT RightHandMiddle2
										{
											OFFSET -6.17441 0.00000 0.00000
											CHANNELS 3 Zrotation Xrotation Yrotation
											JOINT RightHandMiddle3
											{
												OFFSET -3.56743 0.00000 0.00000
												CHANNELS 3 Zrotation Xrotation Yrotation
												End site
												{
													OFFSET 0.00000 0.00000 0.00000
												}
											}
										}
									}
									JOINT RightHandRing1
									{
										OFFSET -12.69180 0.00000 -3.06433
										CHANNELS 3 Zrotation Xrotation Yrotation
										JOINT RightHandRing2
										{
											OFFSET -5.62556 0.00000 0.00000
											CHANNELS 3 Zrotation Xrotation Yrotation
											JOINT RightHandRing3
											{
												OFFSET -3.56744 0.00000 0.00000
												CHANNELS 3 Zrotation Xrotation Yrotation
												End site
												{
													OFFSET 0.00000 0.00000 0.00000
												}
											}
										}
									}
									JOINT RightHandPinky1
									{
										OFFSET -11.11390 0.00000 -6.03719
										CHANNELS 3 Zrotation Xrotation Yrotation
										JOINT RightHandPinky2
										{
											OFFSET -4.52789 0.00000 0.00000
											CHANNELS 3 Zrotation Xrotation Yrotation
											JOINT RightHandPinky3
											{
												OFFSET -2.46976 0.00000 0.00000
												CHANNELS 3 Zrotation Xrotation Yrotation
												End site
												{
													OFFSET 0.00000 0.00000 0.00000
												}
											}
										}
									}
								}
							}
						}
					}
					JOINT LeftShoulder
					{
						OFFSET 0.01000 7.91373 5.19711
						CHANNELS 3 Zrotation Xrotation Yrotation
						JOINT LeftArm
						{
							OFFSET 18.41580 0.00000 0.00000
							CHANNELS 3 Zrotation Xrotation Yrotation
							JOINT LeftForeArm
							{
								OFFSET 29.11090 0.00000 0.00000
								CHANNELS 3 Zrotation Xrotation Yrotation
								JOINT LeftHand
								{
									OFFSET 24.65040 0.00000 0.00000
									CHANNELS 3 Zrotation Xrotation Yrotation
									JOINT LeftHandThumb1
									{
										OFFSET 5.35114 -0.85590 3.97906
										CHANNELS 3 Zrotation Xrotation Yrotation
										JOINT LeftHandThumb2
										{
											OFFSET 4.52789 0.00000 0.00000
											CHANNELS 3 Zrotation Xrotation Yrotation
											JOINT LeftHandThumb3
											{
												OFFSET 2.46977 0.00000 0.00000
												CHANNELS 3 Zrotation Xrotation Yrotation
												End site
												{
													OFFSET 0.00000 0.00000 0.00000
												}
											}
										}
									}
									JOINT LeftHandIndex1
									{
										OFFSET 14.26970 0.00000 2.88139
										CHANNELS 3 Zrotation Xrotation Yrotation
										JOINT LeftHandIndex2
										{
											OFFSET 5.48836 0.00000 0.00000
											CHANNELS 3 Zrotation Xrotation Yrotation
											JOINT LeftHandIndex3
											{
												OFFSET 3.01859 0.00000 0.00000
												CHANNELS 3 Zrotation Xrotation Yrotation
												End site
												{
													OFFSET 0.00000 0.00000 0.00000
												}
											}
										}
									}
									JOINT LeftHandMiddle1
									{
										OFFSET 14.26970 0.00000 -0.09147
										CHANNELS 3 Zrotation Xrotation Yrotation
										JOINT LeftHandMiddle2
										{
											OFFSET 6.17440 0.00000 0.00000
											CHANNELS 3 Zrotation Xrotation Yrotation
											JOINT LeftHandMiddle3
											{
												OFFSET 3.56744 0.00000 0.00000
												CHANNELS 3 Zrotation Xrotation Yrotation
												End site
												{
													OFFSET 0.00000 0.00000 0.00000
												}
											}
										}
									}
									JOINT LeftHandRing1
									{
										OFFSET 12.69180 0.00000 -3.06433
										CHANNELS 3 Zrotation Xrotation Yrotation
										JOINT LeftHandRing2
										{
											OFFSET 5.62556 0.00000 0.00000
											CHANNELS 3 Zrotation Xrotation Yrotation
											JOINT LeftHandRing3
											{
												OFFSET 3.56744 0.00000 0.00000
												CHANNELS 3 Zrotation Xrotation Yrotation
												End site
												{
													OFFSET 0.00000 0.00000 0.00000
												}
											}
										}
									}
									JOINT LeftHandPinky1
									{
										OFFSET 11.11390 0.00000 -6.03719
										CHANNELS 3 Zrotation Xrotation Yrotation
										JOINT LeftHandPinky2
										{
											OFFSET 4.52789 0.00000 0.00000
											CHANNELS 3 Zrotation Xrotation Yrotation
											JOINT LeftHandPinky3
											{
												OFFSET 2.46976 0.00000 0.00000
												CHANNELS 3 Zrotation Xrotation Yrotation
												End site
												{
													OFFSET 0.00000 0.00000 0.00000
												}
											}
										}
									}
								}
							}
						}
					}
					JOINT pCube4
					{
						OFFSET 0.00000 10.91090 1.10792
						CHANNELS 3 Zrotation Xrotation Yrotation
						End site
						{
							OFFSET 0.00000 0.00000 0.00000
						}
					}
				}
			}
		}
	}
	JOINT RightUpLeg
	{
		OFFSET -9.98441 0.00000 0.00000
		CHANNELS 3 Zrotation Xrotation Yrotation
		JOINT RightLeg
		{
			OFFSET 0.00000 -42.11790 0.00000
			CHANNELS 3 Zrotation Xrotation Yrotation
			JOINT RightFoot
			{
				OFFSET 0.00000 -45.00020 -0.00001
				CHANNELS 3 Zrotation Xrotation Yrotation
				JOINT RightForeFoot
				{
					OFFSET 0.00000 -3.74820 0.00000
					CHANNELS 3 Zrotation Xrotation Yrotation
					JOINT RightToeBase
					{
						OFFSET 0.00000 0.06325 14.43120
						CHANNELS 3 Zrotation Xrotation Yrotation
						End site
						{
							OFFSET 0.00000 0.00000 0.00000
						}
					}
				}
			}
		}
	}
	JOINT LeftUpLeg
	{
		OFFSET 9.98441 0.00000 0.00000
		CHANNELS 3 Zrotation Xrotation Yrotation
		JOINT LeftLeg
		{
			OFFSET 0.00000 -42.11800 0.00000
			CHANNELS 3 Zrotation Xrotation Yrotation
			JOINT LeftFoot
			{
				OFFSET 0.00000 -45.00070 0.00000
				CHANNELS 3 Zrotation Xrotation Yrotation
				JOINT LeftForeFoot
				{
					OFFSET 0.00000 -3.74824 0.00000
					CHANNELS 3 Zrotation Xrotation Yrotation
					JOINT LeftToeBase
					{
						OFFSET 0.00000 0.06325 14.43110
						CHANNELS 3 Zrotation Xrotation Yrotation
						End site
						{
							OFFSET 0.00000 0.00000 0.00000
						}
					}
				}
			}
		}
	}
}
MOTION
Frames: 4
Frame Time: 0.050000
0.029867681103507362 0.00953108610989279 -0.028898601372907912 -0.004755443113578616 -0.04187993994451951 0.02070208486417841 0.40594994851958266 1.4667890331598832 -1.3919381358979188 -0.5491964684745274 3.832940202774368 0.30918715768686567 -0.6755229298132759 -1.585214591239342 0.73421860419173 -0.9434526535503188 -0.5240145303406033 -0.35822192103428635 -0.33212690789083166 12.84207849501314 0.1969660028393032 0.6920244531065246 -0.5888717405269431 -0.059226643447640184 0.7108770227340183 -16.171470606233257 -0.10147950157531743 -2.7971545304202294 1.409119269192012 -15.330440646524915 72.41469243679667 14.664006211312266 5.237056345817232 13.25336818762574 5.658530770056167 89.4711700300743 23.6912247141205 -0.3182634869353619 -4.99526736338789 4.540032008984938 -0.10475332881346351 -1.5703862745292227 -0.019106380943797262 0.001294693290498636 -56.18687329050624 -0.02194179502475763 -0.005312691395315404 -56.19673957629694 -38.76731855436976 -0.029420112012222926 -0.008162650920276704 0.021615909408957953 -0.033214515265498436 -0.0381691383323164 0.042186220143310985 -0.00446144774292294 -0.03896465557806307 -36.68627746363962 -0.042005685253330836 0.04495533680403878 -0.02665954184142765 0.045144415203036616 0.03431265343315135 -0.00816123516033464 0.044343012373962994 -0.03264130433398137 -19.752736200557948 -0.029676167037215873 -0.014513051198641136 0.006658281560133665 0.007369741654590595 0.03571120453861919 -0.011914203194019712 -0.022434588796438212 0.04991478747448244 24.014690610579475 -0.00875763402764836 0.046748845576659454 28.84548250933597 -0.030478328008174006 0.028245040491676397 28.850801388896098 0.009605917215973942 -0.04495205003875241 5.536172878100355 1.5922332602091267 14.161949642244247 -76.922618479318 26.576949099220705 -8.455974362698441 -58.88658912051517 15.51236564342034 -103.39581658490292 -21.341057263305043 0.6032931201648926 1.0087978098252417 -0.4289807169328148 0.07042856219706452 -8.16168587257308 0.03680120427357558 -0.029675819985647823 44.55692091330412 -0.04183745624725823 0.04576958390120616 44.55565732571626 12.44593793448984 -0.048097601938056775 -0.03877854591810538 0.02237799117679517 -0.045252636650213014 -0.024830091918451362 -0.007724268589150786 -0.03305075382294171 0.002567444182510413 11.100943491701985 -0.0033760690989741516 -0.030751218757405323 -0.009383759878119166 -0.012473312444213356 0.011619528323289899 -0.025436900649337346 -0.029199160975252384 0.017748739561845146 4.732315801849708 0.034107573573014 -0.021484828810097684 -0.013407158387334708 -0.028348502456488157 0.03877514454547368 -0.04124911034200545 -0.049839245970651536 0.023208367791049275 -5.6182828244486265 0.014874454923967925 0.039829877982378054 -6.694029111431534 0.048204282794886325 -0.035035146934772575 -6.7155991786721145 0.037009839634071826 -0.01970494626169441 -0.046855428798478586 -0.021542407989664055 0.04704767752818799 8.051049657485617 3.535134795172235 -19.224168407640633 -0.006848729292546977 10.392218510710553 -0.006435660985173106 -5.586943936499936 -15.649460559289349 3.212041289207635 0.012126854098557143 0.0038924173371339063 -0.012728316738152482 -0.016580907259519412 4.743275522937383 0.0015777432446674787 12.441024512850692 -8.216476435350613 6.894319374185029 -0.03577986489659929 46.359725409853226 0.04672670716520701 -4.323520244393295 -14.7275483999598 -3.8604975619290416 0.04153998134345845 0.0404262408281613 0.024312474978132825 -0.008905475578601128 -10.70575704573285 -0.008182218984008031 
0.049889042088144736 0.01852159046065857 0.027732425901517227 -0.006752528238802829 0.017409309742006825 0.005156095549206504 -0.05970945254649208 1.389148290760466 -1.2837957337748853 -0.5232407075442302 3.8319146666292845 0.3111856991394717 -0.7149057304443803 -1.6718963910475702 0.6678091075455802 -0.9246540520042481 -0.5151347357868818 -0.3817344343695963 -0.37271889636624006 12.987960515922778 0.2786291982147316 0.6653654467662506 -0.5810658072544266 0.11247759785202899 0.7289013866446403 -16.16852223499056 -0.020172693015300912 -2.2862418919078666 1.265693810614673 -15.211442136890126 71.9064981790662 14.951840270698153 5.156362328528258 12.566444089222227 6.0842676073802835 87.5192679035906 24.07850211857779 -0.301057624173024 -4.672453450616035 4.526161017348235 -0.11553635838298551 -1.5591820760776116 0.010033180959895227 -0.02435390637336454 -56.249516112267266 -0.01363580866543669 -0.039740278484962886 -56.24666943318919 -38.75403188193973 -0.030974048489968053 -0.0017697667835936033 -0.04700862141723288 -0.032683360084356884 0.035373064012758845 0.035564059584561804 0.0014816462067470107 -0.033297155313954115 -36.70445231226963 -0.03064547080643214 -0.02599289029139459 0.022446416659687395 -0.00020874340919312714 -0.00463744748392215 0.005015650121279242 0.009660406602832081 -0.030888506488480946 -19.71878299627231 -0.026858566245554157 -0.0348555996875483 0.041826863778861204 0.04491060886661874 0.048986265302206414 0.005439146548478043 0.018384701985719665 -0.03352956129667407 24.03788825542915 0.012849091158526718 -0.02604830505489673 28.858158252591693 -0.0027603014705478014 -0.029155542946380463 28.84208921689359 0.017494801104695753 -0.04898627603673789 5.1877820302946125 1.4613129166499426 14.18295489582853 -76.92429164095229 26.955671726647903 -8.780306932332191 -55.63340029418547 14.612158151772977 -102.57738915850123 -21.17815547172124 0.9469754201525663 0.807648207107093 -0.4831373411473616 0.0406799781479268 -8.130555283783663 -0.0011617484790522286 -0.0037300297260976214 44.557187212986996 0.03612021774437651 -0.020887749943487893 44.61466834260227 12.46349509255937 -0.02331963123393125 -0.015469842405315194 -0.01655114916935246 -0.01687577447692936 -0.026055085931585162 -0.0407878365253437 -0.006015828346080252 -0.015746455474798964 11.152784212786042 0.011464723100363772 0.034797769870539716 -0.04035874645781209 0.005212764279939243 -0.02441704431350805 -0.022701977782818156 0.023302828081352252 -0.023619579698977808 4.7666838541985435 0.015540993293283354 0.010423606197715317 0.007933383834463664 0.019207217589217153 -0.012265543863791289 0.003785083196238406 -0.006467379008795281 0.02609698765953118 -5.619380163571989 -0.03110272093112019 -0.015384540800375544 -6.682207484700223 0.04618861666185221 -0.01818500032500643 -6.70370934693978 -0.0022801400994010624 -0.016861469455044374 -0.029338928514206275 0.024688004393481882 -0.0015769435859660538 8.045816383502759 3.4947916239613264 -19.194487608267234 0.037214360918835274 10.406741494774662 0.02734162799975916 -5.575979604343348 -15.627734852809448 3.2210801374216467 0.01062685130306112 -0.01554335673969394 -0.015076143006776928 -0.027214499655646852 4.676780985250206 -0.02600083700740415 12.486365064404138 -8.2418252199581 6.878083487196314 -0.014394565174870456 46.400305665399145 -0.03895532717870112 -4.37267935703991 -14.776610540403045 -3.8129893367312766 0.00020985978413535873 -0.025122129805474656 -0.011932578190539216 0.019886710605128588 -10.783297814446097 0.020921746229653634 
0.008295925063348926 -0.013475535801389972 0.043214839351817774 -0.018280146783075175 0.04667840830022003 -0.02595670264092008 -0.5124394387130196 1.4210638411129515 -1.2124634887156605 -0.520468312736915 3.8855251911950854 0.3552208504744676 -0.7601223756006174 -1.6888912112350558 0.643736316970908 -0.8577063265002363 -0.5115292579178141 -0.4322875483618757 -0.38838458318517005 13.203917293728543 0.35457328700310914 0.7118058927926495 -0.6187714538633873 0.19360946374479027 0.7140239652638447 -16.15262006436972 -0.02620276674654053 -1.7817723928413836 1.0647468397841058 -15.191462766892883 71.42788995522598 14.25403604582783 5.260952235372436 12.335265032061121 7.009430922692825 85.09071188199262 24.650895515565672 -0.3139234457164211 -4.250296855657766 4.557021420243964 -0.14641526177616768 -1.5749888443552305 -0.04505077257217812 -0.02998969847487671 -56.21791082811679 0.0008670334487034494 0.023636979246758224 -56.2529698042554 -38.75578694007954 -0.016505107524027014 -0.0020717352363636707 0.017285124432615387 -0.0237238412633762 0.019666601778689674 0.003516642817905475 -0.034819621096144816 -0.027693292795629466 -36.67956457186138 -0.029241323425617544 -0.003916883929357861 0.03280184639527089 0.03779027371501518 -0.0031522039125051406 0.003054090547465844 -0.03390974049954713 -0.0036008424189171956 -19.78739559075169 0.01129330032491957 0.01072237780150207 0.029918346224723856 0.008731651476837176 -0.009071713473805788 0.02012921496261426 -0.027680130696489606 0.03543306576469087 24.089745771984834 -0.008564535687560113 0.005127768202436863 28.87027248830311 0.020232860177394393 -0.010246861942719124 28.875315788028843 0.015381925552085892 0.0345499607279332 4.893824377952581 1.4636399999784018 14.223825110257188 -76.76684156254878 26.90253658611592 -9.246044207027523 -51.745492094425764 13.61244385176975 -101.7223701729885 -21.159094960325724 1.734089715473117 0.2281111921214692 -0.445969364353575 0.04454819038425237 -8.102367111978594 -0.023067846461050152 0.004098397337423111 44.55955004910313 0.01967056938376357 -0.009930387018736532 44.58857507525904 12.410662665544331 -0.03022428161859074 -0.02727547142197294 0.01614185467058665 -0.015345328515357502 0.002732997839134974 0.028770983930440138 0.03696696489248746 -0.007955790754523856 11.06171833154066 0.03651560891013098 -0.04348980495114193 -0.0013755455582999039 -0.03750438354194845 0.0036600505120837298 0.0384095384588399 0.0102174482344806 0.023903971522571673 4.747719315725729 -0.040298255145058436 0.012167565562001593 0.00481685303528806 0.01908090396959823 0.04643776110854285 -0.004760705694774134 0.004276117386599014 -0.014913075217040226 -5.575335601652198 0.0017962149748404453 -0.01360484034456167 -6.7463366275856895 -0.04113864535904099 -0.01093052927835444 -6.72350991486929 0.026181740657288118 -0.016963483709108308 0.005850286223140864 -0.03850017518551196 -0.04428068334034579 8.058074250972803 3.484643618952521 -19.201821118726293 -0.003852952413881041 10.348057128860342 0.04897148314295613 -5.591553851866878 -15.689310809817805 3.154759798854766 0.02512277460300888 0.004523530036511391 -0.041817614366310325 0.030986012320128285 4.682168118126434 -0.04975290233390431 12.491402162103743 -8.252837605134934 6.849333354745743 -0.036926979536702154 46.33601831593714 -0.027214206196446527 -4.318486660007606 -14.706732898855778 -3.8820761204796725 -0.020707956609585684 -0.049416134846606785 0.022113883554333767 -0.010627870970393763 -10.769984039073096 0.007282708048111669 
-0.04819874794144105 -0.004847895259524721 0.012287167326524196 0.019510677685943452 0.01809365208513106 0.01378078920533819 -0.647344445945266 1.4747986076889241 -1.1776808881626009 -0.5146854136056734 3.9573173624008655 0.3312983195807671 -0.7102944841064103 -1.8008984974630962 0.5017414865116588 -0.8848922362846324 -0.496942109565653 -0.455632704369533 -0.48004120481950935 13.424225415186228 0.37525524520140663 0.6937003131230348 -0.7370730626572597 0.34541628391753315 0.7718465048820962 -16.320060838873708 -0.04706332954613071 -1.7471691235593017 1.0326505508197314 -15.224733099349871 71.30293675736301 12.403991842856271 5.524793066227817 12.208153497300795 8.316459041095117 82.44575419501366 25.054930751920818 -0.30155373016002607 -3.6080261835468184 4.53011085067824 -0.09985837143494697 -1.5943801430269338 -0.04171957800280229 -0.029524484115204582 -56.185133766310265 -0.002897636087922838 0.046484516897857125 -56.28279480834081 -38.804768070235355 0.021080244868945157 -0.03595383740276576 -0.0035136181200089234 0.034909892067480616 0.008055686348768975 0.02876085946653224 -0.00894286882975597 -0.010031869424242784 -36.699024886805596 -0.006958971285789027 0.0429933570747308 -0.013218878717194935 0.01099894156691819 0.008716911991398556 -0.001284958675311632 -0.002178130035906344 -0.027348354097319377 -19.751823679888282 -0.03269931997492173 0.0037692143141665004 -0.04087186347181517 0.002067901475524747 -0.04493169752257069 0.01569916566426644 -0.027753258592442914 0.0024345795720802877 24.04882719340621 -0.04368207461737099 0.01906514128568845 28.910743410047836 -0.0005600247624562288 0.0037684762494950394 28.847848289960584 -0.0013113934380619711 0.034844787952647095 4.931751905327743 1.396211141577022 14.226518982194772 -76.59994902372813 26.83302475307791 -9.97055756565891 -47.533585571924455 12.588376513657417 -100.98352489815977 -21.075982662266252 2.290945356077289 -0.2919298097202832 -0.518333743357143 0.040860512868412247 -8.104213768977896 0.0274448130529946 0.03248480714698836 44.56137895585027 -0.014488362453738772 -0.012684614752352693 44.531926304005246 12.440492593583292 -0.0036123601365024667 2.489285750512489e-05 0.015874848314780855 -0.005159945102281193 0.03167087323820726 0.002697562484237686 -0.007807328833526383 -0.013985503554335687 11.086744411407755 -0.01872230096910113 -0.038028791524516666 0.000974589127179625 0.0003927566048924151 -0.016745205531936685 -0.03941777955361883 -0.025612109505716154 -0.019073941014616007 4.7287729055542975 -0.005868149277500004 -0.024958406959215255 0.01988451926796396 -0.049839182626434005 0.025039980039237818 -0.04545129430329604 -0.03690112887991367 0.012431216486114031 -5.624200638653266 0.014605301222685807 -0.03270387930977546 -6.751782194747259 0.032227075260157764 0.0017518241351484293 -6.696110479135118 0.022798512038683574 -0.047372603010335475 -0.02145913878946813 -0.017527726806064216 -0.024905428565424267 8.081042740958171 3.449182621072958 -19.17677467082518 0.04319355157981969 10.41727055974464 0.025323747679783595 -5.602894229861567 -15.682576017956666 3.204775898265454 -0.013030396510324537 -0.01983836598295467 -0.037290226819373724 0.004458897794284667 4.661643203068011 -0.013465554015144252 12.438587617244014 -8.28425278503102 6.867674993764054 -0.007986488921074484 46.335461994064445 -0.016042144501022974 -4.3544607222382465 -14.758417592787433 -3.823608647793379 0.0019074131550359033 -0.02106483499273149 0.007749298081075433 0.04998055575065639 -10.74084915479733 0.006092126218950175 
